<svg height="512" viewBox="0 0 128 128" width="512" xmlns="http://www.w3.org/2000/svg" xmlns:xlink="http://www.w3.org/1999/xlink"><linearGradient id="a" gradientUnits="userSpaceOnUse" x1="105.047" x2="22.953" y1="122.736" y2="40.642"><stop offset="0" stop-color="#f57412"/><stop offset="1" stop-color="#ffce31"/></linearGradient><path d="m103.81 48.438a1.751 1.751 0 0 0 1.75-1.75v-4.808a1.751 1.751 0 0 0 -1.75-1.75h-6.143v-.383a7.759 7.759 0 0 0 -7.75-7.747h-21.167v-6.871a10.744 10.744 0 1 0 -10.35-18.803 1.75 1.75 0 1 0 1.827 2.985 7.241 7.241 0 1 1 -3.352 4.87 1.75 1.75 0 0 0 -3.443-.634 10.888 10.888 0 0 0 -.182 1.953 10.752 10.752 0 0 0 6 9.629v6.871h-21.167a7.759 7.759 0 0 0 -7.75 7.75v.383h-6.143a1.751 1.751 0 0 0 -1.75 1.75v23.537a1.751 1.751 0 0 0 1.75 1.75h6.143v.385a7.759 7.759 0 0 0 7.75 7.75h12.167v5.316h-20.058a7.759 7.759 0 0 0 -7.75 7.75v9.629a1.75 1.75 0 0 0 3.5 0v-9.629a4.255 4.255 0 0 1 4.25-4.25h67.616a4.255 4.255 0 0 1 4.25 4.25v31.379h-13.809v-16.187a1.75 1.75 0 0 0 -1.75-1.75h-45a1.751 1.751 0 0 0 -1.75 1.75v16.187h-13.807v-4.375a1.75 1.75 0 0 0 -3.5 0v6.125a1.751 1.751 0 0 0 1.75 1.75h79.616a1.751 1.751 0 0 0 1.75-1.75v-33.129a7.759 7.759 0 0 0 -7.75-7.75h-20.058v-5.316h12.167a7.759 7.759 0 0 0 7.75-7.75v-.385h6.143a1.751 1.751 0 0 0 1.75-1.75v-10.8a1.75 1.75 0 0 0 -3.5 0v9.05h-4.393v-20.04h4.393v3.058a1.75 1.75 0 0 0 1.75 1.75zm-60.559 56.875h41.5v14.437h-41.5zm19.5-79.142a9.929 9.929 0 0 0 2.5 0v5.829h-2.5zm-36.811 37.499v-20.04h4.393v20.04zm48.31 16.951h-20.5v-5.316h20.5zm19.917-13.066a4.255 4.255 0 0 1 -4.25 4.25h-13.869c-.016 0-.031-.005-.048-.005s-.032 0-.048.005h-23.9c-.016 0-.031-.005-.048-.005s-.032 0-.048.005h-13.873a4.255 4.255 0 0 1 -4.25-4.25v-27.808a4.255 4.255 0 0 1 4.25-4.25h22.888.029s.019 0 .029 0h5.942.029s.019 0 .029 0h22.888a4.255 4.255 0 0 1 4.25 4.25zm-71.725 41.112v-3.084a1.75 1.75 0 0 1 3.5 0v3.084a1.75 1.75 0 0 1 -3.5 0zm32.809-59.019a7.75 7.75 0 1 0 -7.751 7.752 7.759 7.759 0 0 0 7.751-7.752zm-7.751 4.252a4.25 4.25 0 1 1 4.25-4.25 4.255 4.255 0 0 1 -4.25 4.25zm33-12a7.75 7.75 0 1 0 7.75 7.75 7.759 7.759 0 0 0 -7.75-7.75zm0 12a4.25 4.25 0 1 1 4.25-4.25 4.254 4.254 0 0 1 -4.25 4.25zm-4.375 10.975a1.75 1.75 0 0 1 -1.75 1.75h-20.75a1.75 1.75 0 0 1 0-3.5h20.75a1.75 1.75 0 0 1 1.75 1.75zm23.433 26.5a4.75 4.75 0 1 0 -4.75 4.75 4.755 4.755 0 0 0 4.75-4.754zm-6 0a1.25 1.25 0 1 1 1.25 1.25 1.25 1.25 0 0 1 -1.25-1.254zm-55.616 0a4.75 4.75 0 1 0 -4.75 4.75 4.754 4.754 0 0 0 4.75-4.754zm-6 0a1.25 1.25 0 1 1 1.25 1.25 1.251 1.251 0 0 1 -1.25-1.254z" fill="url(#a)"/></svg>